<svg xmlns="http://www.w3.org/2000/svg" viewBox="0 0 64 64">
  <defs>
    <linearGradient id="g" x1="0" x2="1" y1="0" y2="1">
      <stop offset="0%" stop-color="#e6ccb2"/>
      <stop offset="100%" stop-color="#b08968"/>
    </linearGradient>
  </defs>
  <g fill="none" stroke="#7a6a57" stroke-width="2">
    <rect x="2" y="2" width="60" height="60" rx="12" fill="url(#g)" stroke="none"/>
    <path d="M20 34c0-8 6-14 14-14s14 6 14 14-6 14-14 14c-2 0-4-.5-6-1-2 2-5 3-8 3 2-2 3-4 3-6-2-2-3-6-3-10z" fill="#fff"/>
    <path d="M26 30c2-4 6-6 10-6"/>
    <circle cx="30" cy="34" r="1.8" fill="#7a6a57" stroke="none"/>
    <circle cx="38" cy="34" r="1.8" fill="#7a6a57" stroke="none"/>
  </g>
</svg>



